<mxfile host="Electron" modified="2024-07-16T19:00:15.264Z" agent="Mozilla/5.0 (Windows NT 10.0; Win64; x64) AppleWebKit/537.36 (KHTML, like Gecko) draw.io/22.1.16 Chrome/120.0.6099.109 Electron/28.1.0 Safari/537.36" version="22.1.16" etag="yGB02EHWNMNIWYVagLPZ" type="device">
  <diagram name="Page 1" id="Page-1">
    <mxGraphModel dx="1098" dy="940" grid="1" gridSize="10" guides="1" tooltips="1" connect="1" arrows="1" fold="1" page="1" pageScale="1" pageWidth="700" pageHeight="300" math="0" shadow="0">
      <root>
        <mxCell id="0" />
        <mxCell id="1" parent="0" />
        <UserObject label="" tags="Background" id="2">
          <mxCell style="vsdxID=10;fillColor=#ffffff;gradientColor=none;shape=stencil(rVFBDsIwDHtNj5VCK14wxj8ilm0VZZ3SAuX3tAoIBhwQ4mbHjhMlyjZxxJmUgZg47OnsujQqu1HGuGkkdqkgZVtlmz4wDRyOUyd8xuqs6BBONSFLH9QOAxdha6FbcSLvisR5oQEvvfegFXyMgqwxu6g5JEwuTIupHnkgXcbo3uNwyxEpnonmt/Ivi/1nLfhirQIeZ+6d9/KlZ/31LaUkL7XtFQ==);strokeColor=#000000;points=[[0.5,0,0],[0.5,0.5,0],[0.5,0.5,0],[0.5,0.5,0],[1,0.5,0],[0.15,0.85,0],[0.85,0.85,0],[0.85,0.15,0],[0.15,0.15,0]];labelBackgroundColor=none;rounded=0;html=1;whiteSpace=wrap;" parent="1" vertex="1">
            <mxGeometry x="70" y="73.54" width="17" height="17" as="geometry" />
          </mxCell>
        </UserObject>
        <UserObject label="" tags="Background" id="3">
          <mxCell style="vsdxID=26;fillColor=#000000;gradientColor=none;shape=stencil(rVFBDsIwDHtNj5VCK14wxj8ilm0VZZ3SAuX3tAoIBhwQ4mbHjhMlyjZxxJmUgZg47OnsujQqu1HGuGkkdqkgZVtlmz4wDRyOUyd8xuqs6BBONSFLH9QOAxdha6FbcSLvisR5oQEvvfegFXyMgqwxu6g5JEwuTIupHnkgXcbo3uNwyxEpnonmt/Ivi/1nLfhirQIeZ+6d9/KlZ/31LaUkL7XtFQ==);strokeColor=#000000;points=[[0.5,0,0],[0.5,0.5,0],[0.5,0.5,0],[0.5,0.5,0],[1,0.5,0],[0.15,0.85,0],[0.85,0.85,0],[0.85,0.15,0],[0.15,0.15,0]];labelBackgroundColor=none;rounded=0;html=1;whiteSpace=wrap;" parent="1" vertex="1">
            <mxGeometry x="628" y="73.54" width="17" height="17" as="geometry" />
          </mxCell>
        </UserObject>
        <UserObject label="&lt;div style=&quot;font-size: 1px&quot;&gt;&lt;font style=&quot;font-size:14.11px;font-family:Calibri;color:#000000;direction:ltr;letter-spacing:0px;line-height:120%;opacity:1&quot;&gt;[a-z]&lt;br/&gt;&lt;/font&gt;&lt;/div&gt;" tags="Background" id="4">
          <mxCell style="verticalAlign=middle;align=center;overflow=width;vsdxID=28;shape=stencil(nZE9DsIwDIVP4xWliRiYS7kAJ4iIIRYhqdxQfk5PWhepdGBoJvu9z7b0AqbuvG0RtOoypys+yGUPZg9aU/TIlEsFpgFTnxPjhdM9OulbW0itRgWdzFQDrZXl05HeOGnVZvfztgLJllvqh+tPYZVYr2lSSX8QNFCcoV9zFfwHXQkuzpdizEeSoxAk3rm/zLNI8hem+QA=);points=[[1,0.5,0],[0.5,0,0],[0.5,0.5,0],[0.5,0.5,0]];labelBackgroundColor=none;rounded=1;html=1;whiteSpace=wrap;" parent="1" vertex="1">
            <mxGeometry x="310" y="115.54" width="50" height="37" as="geometry" />
          </mxCell>
        </UserObject>
        <UserObject label="&lt;div style=&quot;font-size: 1px&quot;&gt;&lt;font style=&quot;font-size:14.11px;font-family:Calibri;color:#000000;direction:ltr;letter-spacing:0px;line-height:120%;opacity:1&quot;&gt;[A-Z]&lt;br/&gt;&lt;/font&gt;&lt;/div&gt;" tags="Background" id="5">
          <mxCell style="verticalAlign=middle;align=center;overflow=width;vsdxID=29;shape=stencil(nZE9DsIwDIVP4xWliRiYS7kAJ4iIIRYhqdxQfk5PWhepdGBoJvu9z7b0AqbuvG0RtOoypys+yGUPZg9aU/TIlEsFpgFTnxPjhdM9OulbW0itRgWdzFQDrZXl05HeOGnVZvfztgLJllvqh+tPYZVYr2lSSX8QNFCcoV9zFfwHXQkuzpdizEeSoxAk3rm/zLNI8hem+QA=);points=[[1,0.5,0],[0.5,0,0],[0.5,0.5,0],[0.5,0.5,0]];labelBackgroundColor=none;rounded=1;html=1;whiteSpace=wrap;" parent="1" vertex="1">
            <mxGeometry x="310" y="162.54000000000002" width="50" height="37" as="geometry" />
          </mxCell>
        </UserObject>
        <UserObject label="&lt;div style=&quot;font-size: 1px&quot;&gt;&lt;font style=&quot;font-size:14.11px;font-family:Calibri;color:#000000;direction:ltr;letter-spacing:0px;line-height:120%;opacity:1&quot;&gt;[0-9]&lt;br/&gt;&lt;/font&gt;&lt;/div&gt;" tags="Background" id="6">
          <mxCell style="verticalAlign=middle;align=center;overflow=width;vsdxID=30;shape=stencil(nZE9DsIwDIVP4xWliRiYS7kAJ4iIIRYhqdxQfk5PWhepdGBoJvu9z7b0AqbuvG0RtOoypys+yGUPZg9aU/TIlEsFpgFTnxPjhdM9OulbW0itRgWdzFQDrZXl05HeOGnVZvfztgLJllvqh+tPYZVYr2lSSX8QNFCcoV9zFfwHXQkuzpdizEeSoxAk3rm/zLNI8hem+QA=);points=[[1,0.5,0],[0.5,0,0],[0.5,0.5,0],[0.5,0.5,0]];labelBackgroundColor=none;rounded=1;html=1;whiteSpace=wrap;" parent="1" vertex="1">
            <mxGeometry x="310" y="208.54000000000002" width="50" height="37" as="geometry" />
          </mxCell>
        </UserObject>
        <UserObject label="&lt;div style=&quot;font-size: 1px&quot;&gt;&lt;font style=&quot;font-size:14.11px;font-family:Calibri;color:#000000;direction:ltr;letter-spacing:0px;line-height:120%;opacity:1&quot;&gt;_&lt;br/&gt;&lt;/font&gt;&lt;/div&gt;" tags="Background" id="7">
          <mxCell style="verticalAlign=middle;align=center;overflow=width;vsdxID=31;shape=stencil(nZE9DsIwDIVP4xWliRiYS7kAJ4iIIRYhqdxQfk5PWhepdGBoJvu9z7b0AqbuvG0RtOoypys+yGUPZg9aU/TIlEsFpgFTnxPjhdM9OulbW0itRgWdzFQDrZXl05HeOGnVZvfztgLJllvqh+tPYZVYr2lSSX8QNFCcoV9zFfwHXQkuzpdizEeSoxAk3rm/zLNI8hem+QA=);points=[[1,0.5,0],[0.5,0,0],[0.5,0.5,0],[0.5,0.5,0]];labelBackgroundColor=none;rounded=1;html=1;whiteSpace=wrap;" parent="1" vertex="1">
            <mxGeometry x="310" y="254.54000000000002" width="50" height="37" as="geometry" />
          </mxCell>
        </UserObject>
        <UserObject label="&lt;div style=&quot;font-size: 1px&quot;&gt;&lt;font style=&quot;font-size:14.11px;font-family:Calibri;color:#000000;direction:ltr;letter-spacing:0px;line-height:120%;opacity:1&quot;&gt;[a-z]&lt;br/&gt;&lt;/font&gt;&lt;/div&gt;" tags="Background" id="8">
          <mxCell style="verticalAlign=middle;align=center;overflow=width;vsdxID=32;shape=stencil(nZE9DsIwDIVP4xWliRiYS7kAJ4iIIRYhqdxQfk5PWhepdGBoJvu9z7b0AqbuvG0RtOoypys+yGUPZg9aU/TIlEsFpgFTnxPjhdM9OulbW0itRgWdzFQDrZXl05HeOGnVZvfztgLJllvqh+tPYZVYr2lSSX8QNFCcoV9zFfwHXQkuzpdizEeSoxAk3rm/zLNI8hem+QA=);points=[[1,0.5,0],[0.5,0,0],[0.5,0.5,0],[0.5,0.5,0]];labelBackgroundColor=none;rounded=1;html=1;whiteSpace=wrap;" parent="1" vertex="1">
            <mxGeometry x="145" y="63.540000000000006" width="50" height="37" as="geometry" />
          </mxCell>
        </UserObject>
        <UserObject label="&lt;div style=&quot;font-size: 1px&quot;&gt;&lt;font style=&quot;font-size:14.11px;font-family:Calibri;color:#000000;direction:ltr;letter-spacing:0px;line-height:120%;opacity:1&quot;&gt;[A-Z]&lt;br/&gt;&lt;/font&gt;&lt;/div&gt;" tags="Background" id="9">
          <mxCell style="verticalAlign=middle;align=center;overflow=width;vsdxID=33;shape=stencil(nZE9DsIwDIVP4xWliRiYS7kAJ4iIIRYhqdxQfk5PWhepdGBoJvu9z7b0AqbuvG0RtOoypys+yGUPZg9aU/TIlEsFpgFTnxPjhdM9OulbW0itRgWdzFQDrZXl05HeOGnVZvfztgLJllvqh+tPYZVYr2lSSX8QNFCcoV9zFfwHXQkuzpdizEeSoxAk3rm/zLNI8hem+QA=);points=[[1,0.5,0],[0.5,0,0],[0.5,0.5,0],[0.5,0.5,0]];labelBackgroundColor=none;rounded=1;html=1;whiteSpace=wrap;" parent="1" vertex="1">
            <mxGeometry x="145" y="117.54" width="50" height="37" as="geometry" />
          </mxCell>
        </UserObject>
        <UserObject label="&lt;div style=&quot;font-size: 1px&quot;&gt;&lt;font style=&quot;font-size:14.11px;font-family:Calibri;color:#000000;direction:ltr;letter-spacing:0px;line-height:120%;opacity:1&quot;&gt;_&lt;br/&gt;&lt;/font&gt;&lt;/div&gt;" tags="Background" id="10">
          <mxCell style="verticalAlign=middle;align=center;overflow=width;vsdxID=41;shape=stencil(nZE9DsIwDIVP4xWliRiYS7kAJ4iIIRYhqdxQfk5PWhepdGBoJvu9z7b0AqbuvG0RtOoypys+yGUPZg9aU/TIlEsFpgFTnxPjhdM9OulbW0itRgWdzFQDrZXl05HeOGnVZvfztgLJllvqh+tPYZVYr2lSSX8QNFCcoV9zFfwHXQkuzpdizEeSoxAk3rm/zLNI8hem+QA=);points=[[1,0.5,0],[0.5,0,0],[0.5,0.5,0],[0.5,0.5,0]];labelBackgroundColor=none;rounded=1;html=1;whiteSpace=wrap;" parent="1" vertex="1">
            <mxGeometry x="145" y="162.54000000000002" width="50" height="37" as="geometry" />
          </mxCell>
        </UserObject>
        <UserObject label="" tags="Lien" id="11">
          <mxCell style="vsdxID=39;edgeStyle=none;startArrow=none;endArrow=block;startSize=5;endSize=5;strokeColor=#000000;spacingTop=0;spacingBottom=0;spacingLeft=0;spacingRight=0;verticalAlign=middle;html=1;labelBackgroundColor=#ffffff;rounded=1;exitX=1;exitY=0.5135135135135135;exitDx=0;exitDy=0;exitPerimeter=0;entryX=0;entryY=0.4864864864864865;entryDx=0;entryDy=0;entryPerimeter=0;" parent="1" source="8" target="6" edge="1">
            <mxGeometry relative="1" as="geometry">
              <mxPoint y="-1" as="offset" />
              <Array as="points">
                <mxPoint x="270" y="82.54" />
                <mxPoint x="270" y="227.22000000000003" />
              </Array>
            </mxGeometry>
          </mxCell>
        </UserObject>
        <UserObject label="" tags="Lien" id="12">
          <mxCell style="vsdxID=11;edgeStyle=none;startArrow=none;endArrow=block;startSize=5;endSize=5;strokeColor=#000000;spacingTop=0;spacingBottom=0;spacingLeft=0;spacingRight=0;verticalAlign=middle;html=1;labelBackgroundColor=#ffffff;rounded=0;exitX=1.0588235294117647;exitY=0.5294117647058824;exitDx=0;exitDy=0;exitPerimeter=0;entryX=0;entryY=0.5135135135135135;entryDx=0;entryDy=0;entryPerimeter=0;" parent="1" source="2" target="8" edge="1">
            <mxGeometry relative="1" as="geometry">
              <mxPoint x="-1" as="offset" />
              <Array as="points" />
            </mxGeometry>
          </mxCell>
        </UserObject>
        <UserObject label="" tags="Lien" id="13">
          <mxCell style="vsdxID=49;edgeStyle=none;startArrow=none;endArrow=block;startSize=5;endSize=5;strokeColor=#000000;spacingTop=0;spacingBottom=0;spacingLeft=0;spacingRight=0;verticalAlign=middle;html=1;labelBackgroundColor=#ffffff;rounded=1;exitX=1;exitY=0.5135135135135135;exitDx=0;exitDy=0;exitPerimeter=0;entryX=0;entryY=0.5135135135135135;entryDx=0;entryDy=0;entryPerimeter=0;" parent="1" source="4" target="4" edge="1">
            <mxGeometry relative="1" as="geometry">
              <mxPoint as="offset" />
              <Array as="points">
                <mxPoint x="395.81" y="134.54000000000002" />
                <mxPoint x="395.81" y="82.04" />
                <mxPoint x="437.37" y="82.04" />
                <mxPoint x="437.37" y="20" />
                <mxPoint x="224.19" y="20" />
                <mxPoint x="224.19" y="82.04" />
                <mxPoint x="270" y="82.04" />
                <mxPoint x="270" y="134.54000000000002" />
              </Array>
            </mxGeometry>
          </mxCell>
        </UserObject>
        <UserObject label="" tags="Lien" id="14">
          <mxCell style="vsdxID=47;edgeStyle=none;startArrow=none;endArrow=block;startSize=5;endSize=5;strokeColor=#000000;spacingTop=0;spacingBottom=0;spacingLeft=0;spacingRight=0;verticalAlign=middle;html=1;labelBackgroundColor=#ffffff;rounded=1;exitX=1;exitY=0.4864864864864865;exitDx=0;exitDy=0;exitPerimeter=0;entryX=0;entryY=0.5294117647058824;entryDx=0;entryDy=0;entryPerimeter=0;" parent="1" source="7" target="3" edge="1">
            <mxGeometry relative="1" as="geometry">
              <mxPoint x="10" y="2" as="offset" />
              <Array as="points">
                <mxPoint x="395.81" y="272.54" />
                <mxPoint x="395.81" y="81.77" />
              </Array>
            </mxGeometry>
          </mxCell>
        </UserObject>
        <UserObject label="" tags="Lien" id="15">
          <mxCell style="vsdxID=46;edgeStyle=none;startArrow=none;endArrow=block;startSize=5;endSize=5;strokeColor=#000000;spacingTop=0;spacingBottom=0;spacingLeft=0;spacingRight=0;verticalAlign=middle;html=1;labelBackgroundColor=#ffffff;rounded=1;exitX=1;exitY=0.4864864864864865;exitDx=0;exitDy=0;exitPerimeter=0;entryX=0;entryY=0.5294117647058824;entryDx=0;entryDy=0;entryPerimeter=0;" parent="1" source="6" target="3" edge="1">
            <mxGeometry relative="1" as="geometry">
              <mxPoint x="9" as="offset" />
              <Array as="points">
                <mxPoint x="395.81" y="226.54000000000002" />
                <mxPoint x="395.81" y="81.86" />
              </Array>
            </mxGeometry>
          </mxCell>
        </UserObject>
        <UserObject label="" tags="Lien" id="16">
          <mxCell style="vsdxID=45;edgeStyle=none;startArrow=none;endArrow=block;startSize=5;endSize=5;strokeColor=#000000;spacingTop=0;spacingBottom=0;spacingLeft=0;spacingRight=0;verticalAlign=middle;html=1;labelBackgroundColor=#ffffff;rounded=1;exitX=1;exitY=0.4864864864864865;exitDx=0;exitDy=0;exitPerimeter=0;entryX=0;entryY=0.5294117647058824;entryDx=0;entryDy=0;entryPerimeter=0;" parent="1" source="5" target="3" edge="1">
            <mxGeometry relative="1" as="geometry">
              <mxPoint x="9" as="offset" />
              <Array as="points">
                <mxPoint x="395.81" y="180.54000000000002" />
                <mxPoint x="395.81" y="81.95" />
              </Array>
            </mxGeometry>
          </mxCell>
        </UserObject>
        <UserObject label="" tags="Lien" id="17">
          <mxCell style="vsdxID=44;edgeStyle=none;startArrow=none;endArrow=block;startSize=5;endSize=5;strokeColor=#000000;spacingTop=0;spacingBottom=0;spacingLeft=0;spacingRight=0;verticalAlign=middle;html=1;labelBackgroundColor=#ffffff;rounded=1;exitX=1;exitY=0.5135135135135135;exitDx=0;exitDy=0;exitPerimeter=0;entryX=0;entryY=0.5294117647058824;entryDx=0;entryDy=0;entryPerimeter=0;" parent="1" source="4" target="3" edge="1">
            <mxGeometry relative="1" as="geometry">
              <mxPoint x="9" as="offset" />
              <Array as="points">
                <mxPoint x="395.81" y="134.54000000000002" />
                <mxPoint x="395.81" y="82.04" />
              </Array>
            </mxGeometry>
          </mxCell>
        </UserObject>
        <UserObject label="" tags="Lien" id="18">
          <mxCell style="vsdxID=43;edgeStyle=none;startArrow=none;endArrow=block;startSize=5;endSize=5;strokeColor=#000000;spacingTop=0;spacingBottom=0;spacingLeft=0;spacingRight=0;verticalAlign=middle;html=1;labelBackgroundColor=#ffffff;rounded=1;exitX=1;exitY=0.4864864864864865;exitDx=0;exitDy=0;exitPerimeter=0;entryX=0;entryY=0.5294117647058824;entryDx=0;entryDy=0;entryPerimeter=0;" parent="1" source="10" target="3" edge="1">
            <mxGeometry relative="1" as="geometry">
              <mxPoint x="8" as="offset" />
              <Array as="points">
                <mxPoint x="224.19" y="180.54000000000002" />
                <mxPoint x="224.19" y="81.95" />
              </Array>
            </mxGeometry>
          </mxCell>
        </UserObject>
        <UserObject label="" tags="Lien" id="19">
          <mxCell style="vsdxID=42;edgeStyle=none;startArrow=none;endArrow=block;startSize=5;endSize=5;strokeColor=#000000;spacingTop=0;spacingBottom=0;spacingLeft=0;spacingRight=0;verticalAlign=middle;html=1;labelBackgroundColor=#ffffff;rounded=1;exitX=1.0588235294117647;exitY=0.5294117647058824;exitDx=0;exitDy=0;exitPerimeter=0;entryX=0;entryY=0.4864864864864865;entryDx=0;entryDy=0;entryPerimeter=0;" parent="1" source="2" target="10" edge="1">
            <mxGeometry relative="1" as="geometry">
              <mxPoint y="-3" as="offset" />
              <Array as="points">
                <mxPoint x="103" y="82.54" />
                <mxPoint x="103" y="181.13" />
              </Array>
            </mxGeometry>
          </mxCell>
        </UserObject>
        <UserObject label="" tags="Lien" id="20">
          <mxCell style="vsdxID=40;edgeStyle=none;startArrow=none;endArrow=block;startSize=5;endSize=5;strokeColor=#000000;spacingTop=0;spacingBottom=0;spacingLeft=0;spacingRight=0;verticalAlign=middle;html=1;labelBackgroundColor=#ffffff;rounded=1;exitX=1;exitY=0.5135135135135135;exitDx=0;exitDy=0;exitPerimeter=0;entryX=0;entryY=0.4864864864864865;entryDx=0;entryDy=0;entryPerimeter=0;" parent="1" source="8" target="7" edge="1">
            <mxGeometry relative="1" as="geometry">
              <mxPoint y="-1" as="offset" />
              <Array as="points">
                <mxPoint x="270" y="82.54" />
                <mxPoint x="270" y="273.31" />
              </Array>
            </mxGeometry>
          </mxCell>
        </UserObject>
        <UserObject label="" tags="Lien" id="21">
          <mxCell style="vsdxID=38;edgeStyle=none;startArrow=none;endArrow=block;startSize=5;endSize=5;strokeColor=#000000;spacingTop=0;spacingBottom=0;spacingLeft=0;spacingRight=0;verticalAlign=middle;html=1;labelBackgroundColor=#ffffff;rounded=1;exitX=1;exitY=0.5135135135135135;exitDx=0;exitDy=0;exitPerimeter=0;entryX=0;entryY=0.4864864864864865;entryDx=0;entryDy=0;entryPerimeter=0;" parent="1" source="8" target="5" edge="1">
            <mxGeometry relative="1" as="geometry">
              <mxPoint y="-1" as="offset" />
              <Array as="points">
                <mxPoint x="270" y="82.54" />
                <mxPoint x="270" y="181.13" />
              </Array>
            </mxGeometry>
          </mxCell>
        </UserObject>
        <UserObject label="" tags="Lien" id="22">
          <mxCell style="vsdxID=35;edgeStyle=none;startArrow=none;endArrow=block;startSize=5;endSize=5;strokeColor=#000000;spacingTop=0;spacingBottom=0;spacingLeft=0;spacingRight=0;verticalAlign=middle;html=1;labelBackgroundColor=#ffffff;rounded=1;exitX=1.0588235294117647;exitY=0.5294117647058824;exitDx=0;exitDy=0;exitPerimeter=0;entryX=0;entryY=0.4864864864864865;entryDx=0;entryDy=0;entryPerimeter=0;" parent="1" source="2" target="9" edge="1">
            <mxGeometry relative="1" as="geometry">
              <mxPoint y="-3" as="offset" />
              <Array as="points">
                <mxPoint x="103" y="82.54" />
                <mxPoint x="103" y="136.29000000000002" />
              </Array>
            </mxGeometry>
          </mxCell>
        </UserObject>
        <UserObject label="" tags="Lien" id="23">
          <mxCell style="vsdxID=36;edgeStyle=none;startArrow=none;endArrow=block;startSize=5;endSize=5;strokeColor=#000000;spacingTop=0;spacingBottom=0;spacingLeft=0;spacingRight=0;verticalAlign=middle;html=1;labelBackgroundColor=#ffffff;rounded=1;exitX=1;exitY=0.4864864864864865;exitDx=0;exitDy=0;exitPerimeter=0;entryX=0;entryY=0.5294117647058824;entryDx=0;entryDy=0;entryPerimeter=0;" parent="1" source="9" target="3" edge="1">
            <mxGeometry relative="1" as="geometry">
              <mxPoint x="9" as="offset" />
              <Array as="points">
                <mxPoint x="224.19" y="135.54000000000002" />
                <mxPoint x="224.19" y="81.79" />
              </Array>
            </mxGeometry>
          </mxCell>
        </UserObject>
        <UserObject label="" tags="Lien" id="24">
          <mxCell style="vsdxID=37;edgeStyle=none;startArrow=none;endArrow=block;startSize=5;endSize=5;strokeColor=#000000;spacingTop=0;spacingBottom=0;spacingLeft=0;spacingRight=0;verticalAlign=middle;html=1;labelBackgroundColor=#ffffff;rounded=1;exitX=1;exitY=0.5135135135135135;exitDx=0;exitDy=0;exitPerimeter=0;entryX=0;entryY=0.5135135135135135;entryDx=0;entryDy=0;entryPerimeter=0;" parent="1" source="8" target="4" edge="1">
            <mxGeometry relative="1" as="geometry">
              <mxPoint x="-6" y="1" as="offset" />
              <Array as="points">
                <mxPoint x="270" y="82.54" />
                <mxPoint x="270" y="135.04000000000002" />
              </Array>
            </mxGeometry>
          </mxCell>
        </UserObject>
      </root>
    </mxGraphModel>
  </diagram>
</mxfile>
